<?xml version="1.0" encoding="UTF-8" standalone="no"?>
<svg
   xmlns:dc="http://purl.org/dc/elements/1.1/"
   xmlns:cc="http://creativecommons.org/ns#"
   xmlns:rdf="http://www.w3.org/1999/02/22-rdf-syntax-ns#"
   xmlns:svg="http://www.w3.org/2000/svg"
   xmlns="http://www.w3.org/2000/svg"
   xmlns:sodipodi="http://sodipodi.sourceforge.net/DTD/sodipodi-0.dtd"
   xmlns:inkscape="http://www.inkscape.org/namespaces/inkscape"
   version="1.1"
   height="388"
   width="388"
   id="svg10"
   sodipodi:docname="my-sleeping-0-symbolic.svg"
   inkscape:version="1.0.1 (3bc2e813f5, 2020-09-07)">
  <defs
     id="defs14" />
  <sodipodi:namedview
     pagecolor="#ffffff"
     bordercolor="#666666"
     borderopacity="1"
     objecttolerance="10"
     gridtolerance="10"
     guidetolerance="10"
     inkscape:pageopacity="0"
     inkscape:pageshadow="2"
     inkscape:window-width="901"
     inkscape:window-height="936"
     id="namedview12"
     showgrid="false"
     inkscape:zoom="1.6675258"
     inkscape:cx="197.219"
     inkscape:cy="180.72782"
     inkscape:window-x="1019"
     inkscape:window-y="28"
     inkscape:window-maximized="0"
     inkscape:current-layer="svg10" />
  <metadata
     id="metadata2">
    <rdf:RDF>
      <cc:Work
         rdf:about="">
        <dc:format>image/svg+xml</dc:format>
        <dc:type
           rdf:resource="http://purl.org/dc/dcmitype/StillImage" />
        <dc:title>RunCat: Sleeping 0</dc:title>
      </cc:Work>
    </rdf:RDF>
  </metadata>
  <title
     id="title4">RunCat: Sleeping</title>
  <path
     d="m 65.005859,161.53516 c -3.615953,0.0715 -7.297984,0.74132 -10.740234,2.08007 -13.769,5.355 -43.599609,19.12313 -43.599609,61.57813 0,42.455 25.625515,61.9378 69.228515,74.9668 43.602999,13.029 104.415159,13.02539 123.535159,13.02539 19.12,0 125.45175,2.27028 132.71875,-5.76172 0,0 41.25195,-12.68066 41.25195,-44.34766 0.004,-25.239 -3.59105,-31.01123 -11.74805,-39.99023 v -0.004 c 0,0 11.75186,-20.33787 9.13086,-34.04687 -1.842,-9.637 -31.39062,18.58984 -31.39062,18.58984 l -6.0918,-1.55664 c 0,0 8.03281,-29.06747 0.38281,-30.98047 -7.65,-1.913 -29.45159,15.29947 -41.30859,30.98047 0,0 -20.65436,5.1195 -29.06836,31.4375 -8.414,26.318 -45.51453,-33.14245 -58.51953,-41.93945 -13.005,-8.797 -28.68595,-28.77354 -70.37695,-15.76953 -41.691001,13.00399 -54.688363,40.98782 -54.693363,59.54882 0,15.3 2.677703,22.18355 -1.529297,28.68555 0,0 -47.426609,-4.97161 -43.599609,-43.59961 3.827,-38.628 32.127797,-32.51058 36.716797,-32.89258 4.588999,-0.382 14.152234,-4.97226 12.240234,-16.44726 -1.434,-8.60625 -11.691203,-13.77124 -22.539063,-13.55664 z m 261.822261,29.67773 c 3.84501,0 0,11.5332 0,11.5332 0,0 -5.91315,-2.07 -14.78515,0 0,0 10.94015,-11.5332 14.78515,-11.5332 z m 34.17969,16.07227 c 0.2965,0.001 0.49839,0.11612 0.57227,0.375 0.591,2.071 -3.04297,9.67187 -3.04297,9.67187 -1.774,-2.366 -6.32227,-4.54883 -6.32227,-4.54883 0,0 6.71746,-5.50828 8.79297,-5.49804 z"
     style="fill:#bebebe"
     id="path6"
     sodipodi:nodetypes="ssssscccccccscsssccsssssccsssccs" />
  <path
     d="m 238.15245,99.50789 v 8.9571 H 257.546 l -20.85996,24.55514 v 8.56863 h 35.47716 v -9.03316 h -21.37953 l 20.64956,-23.898 v -9.14971 z m 41.88017,49.21224 v 5.98704 l 14.7661,0.002 -15.88452,16.41702 v 5.72971 h 27.01534 v -6.04047 h -16.27945 l 15.72105,-15.97677 v -6.11815 z"
     style="fill: #bebebe;"
     id="path8" />
</svg>
