<?xml version="1.0" encoding="UTF-8" standalone="no"?>
<svg
   xmlns:dc="http://purl.org/dc/elements/1.1/"
   xmlns:cc="http://creativecommons.org/ns#"
   xmlns:svg="http://www.w3.org/2000/svg"
   xmlns="http://www.w3.org/2000/svg"
   version="1.1"
   height="388"
   width="388"
>
  <title
     id="title4">RunCat: Sleeping 0</title>
  <path
     d="m 42.265625,161.61523 c -13.990313,18.4143 -31.599609,21.12313 -31.599609,63.57813 0,42.455 25.625515,61.9378 69.228515,74.9668 43.602999,13.029 104.415159,13.02539 123.535159,13.02539 19.12,0 125.45175,2.27028 132.71875,-5.76172 0,0 41.25195,-12.68066 41.25195,-44.34766 0.004,-25.239 -3.59105,-31.01123 -11.74805,-39.99023 v -0.004 c 0,0 11.75186,-20.33787 9.13086,-34.04687 -1.842,-9.637 -31.39062,18.58984 -31.39062,18.58984 l -6.0918,-1.55664 c 0,0 8.03281,-29.06747 0.38281,-30.98047 -7.65,-1.913 -29.45159,15.29947 -41.30859,30.98047 0,0 -20.65436,5.1195 -29.06836,31.4375 -8.414,26.318 -45.92371,-31.0967 -58.51953,-41.93945 -11.89933,-10.2432 -33.39491,-29.6976 -70.37695,-17.76953 -40.086032,12.92922 -54.688363,42.98782 -54.693363,61.54882 0,15.3 2.677703,22.18355 -1.529297,28.68555 0,0 -47.345525,-4.96366 -43.599609,-43.59961 3.282444,-33.85563 18.273678,-36.77049 24.716797,-42.89258 9.489513,-9.0167 18.066419,-22.27942 6.240234,-32.44726 -16.597662,-6.12772 -20.78998,3.66547 -27.279297,12.52352 z m 284.562495,29.59766 c 3.84501,0 0,11.5332 0,11.5332 0,0 -5.91315,-2.07 -14.78515,0 0,0 10.94015,-11.5332 14.78515,-11.5332 z m 34.17969,16.07227 c 0.2965,0.001 0.49839,0.11612 0.57227,0.375 0.591,2.071 -3.04297,9.67187 -3.04297,9.67187 -1.774,-2.366 -6.32227,-4.54883 -6.32227,-4.54883 0,0 6.71746,-5.50828 8.79297,-5.49804 z"
     style="fill:#bebebe"
   />
  <path
     d="m 238.15245,99.50789 v 8.9571 H 257.546 l -20.85996,24.55514 v 8.56863 h 35.47716 v -9.03316 h -21.37953 l 20.64956,-23.898 v -9.14971 z m 41.88017,49.21224 v 5.98704 l 14.7661,0.002 -15.88452,16.41702 v 5.72971 h 27.01534 v -6.04047 h -16.27945 l 15.72105,-15.97677 v -6.11815 z"
     style="fill: #bebebe;"
   />
</svg>
